PathFileType	4	(X/Y/Z)	/home/abdul/Desktop/myosuite/custom_workspace/IK/output/S1_12_1.trc
DataRate	CameraRate	NumFrames	NumMarkers	Units	OrigDataRate	OrigDataStartFrame	OrigNumFrames
200.0	200.0	28	3	mm	200.0	1	3511
Frame#	Time	V_Shoulder			V_Elbow			V_Wrist		
		X1	Y1	Z1	X2	Y2	Z2	X3	Y3	Z3

1	0.0	-229.00288721109746	555.4072257556469	346.6149262691015	-382.4705834399624	440.5005798486328	14.30542305675053	-361.6137063818951	168.38998973901573	35.69932755388875
2	0.005	-228.84569338146605	555.3493775166797	346.913018557257	-382.701420165027	440.50817660072346	14.80441934470335	-361.5323623739122	168.4209416185305	35.90612594212162
3	0.01	-228.6842302260184	555.291530744132	347.2163447705021	-382.9417160819894	440.51485971065676	15.318577398144527	-361.4446065232821	168.45418738855196	36.1283860987797
4	0.015	-228.5185400338273	555.2337764230593	347.52466407125104	-383.19144678187615	440.5204271958878	15.847819963397765	-361.3501271136863	168.48965497359393	36.36657049204209
5	0.02	-228.34866978798348	555.1762051305944	347.8377279341998	-383.4505663648914	440.5246648570259	16.392050437171942	-361.2486063154813	168.5272579614862	36.62112734671916
6	0.025	-228.1746710485785	555.1189066672463	348.15528083247074	-383.71900683275237	440.52734625909966	16.95115282934062	-361.13972041665795	168.56689524198302	36.89248900981019
7	0.03	-227.9965998309524	555.0619696850412	348.47706093411153	-383.99667752485294	440.5282327518888	17.524991747269652	-361.02314006107207	168.608450691603	37.1810703138934
8	0.035	-227.81451647988646	555.0054813140424	348.80280080556366	-384.2834646019776	440.52707353070605	18.113412401672605	-360.8985304926183	168.651792908037	37.48726694495838
9	0.04	-227.62848554037984	554.9495267888008	349.1322281188047	-384.57923058115034	440.5236057388764	18.716240633978863	-360.7655518041084	168.69677499727402	37.811453821486666
10	0.045	-227.43857562560365	554.894189076287	349.4650663589596	-384.88381392502754	440.5175546130248	19.333282965207793	-360.6238591897418	168.74323441638163	38.1539834917443
11	0.05	-227.24485928258494	554.839548506865	349.80103552929546	-385.1970286890346	440.508633672133	19.964326666361288	-360.4731032002014	168.790992874638	38.515184556370315
12	0.055	-227.04741285612639	554.7856824098491	350.1398528506388	-385.5186642292145	440.4965449511707	20.60913985037611	-360.3129299995744	168.83985629544563	38.895360123426585
13	0.06	-226.84631635142182	554.7326647551805	350.4812334523976	-385.84848497349384	440.4809792799449	21.267471585715647	-360.1429816234844	168.8896148411735	39.29478630311942
14	0.065	-226.64165329578407	554.6805658027356	350.824891052522	-386.18623025879583	440.46161660763823	21.93905203172533	-359.9628962380141	168.9400430027665	39.7137107494089
15	0.07	-226.43351059985534	554.6294517607544	351.1705386238982	-386.5316142361297	440.4381263733337	22.623592595925984	-359.77230839920946	168.9908997556399	40.152351255690945
16	0.075	-226.2219784186259	554.5793844548427	351.51788904483755	-386.88432584547684	440.4101679226399	23.320786113472508	-359.5708493131618	169.0419287830406	40.61089441166743
17	0.08	-226.00715001254412	554.5304210089703	351.86665573149986	-387.2440288619715	440.3773909703466	24.03030704905952	-359.35814709688077	169.09285876770804	41.08949432841217
18	0.085	-225.78912160895754	554.4826135398342	352.21655325026796	-387.61036201454596	440.33943610884626	24.751811721609926	-359.1338270403814	169.1434037523117	41.58827143849541
19	0.09	-225.56799226408478	554.4360088659182	352.56729790827035	-387.98293917787464	440.29593536186553	25.484938552134757	-358.89751187061336	169.1932635687778	42.10731137784599
20	0.095	-225.34386372567712	554.390648232516	352.9186083204384	-388.36134963812145	440.24651278285165	26.229308335201335	-358.64882201805756	169.24212433625127	42.64666395580954
21	0.1	-225.11684029649257	554.3465670539316	353.2702059516649	-388.74515843265635	440.1907850971621	26.98452453449095	-358.3873758870003	169.28965902707012	43.206342219602206
22	0.105	-224.88702869866833	554.3037946740021	353.6218156328176	-389.1339067635848	440.1283623870041	27.75017360296507	-358.112790130666	169.33552809976248	43.78632161906383
23	0.11	-224.65453793904547	554.2623541460223	353.9731660495443	-389.5271124846082	440.05884881787205	28.525825328189466	-357.8246799325391	169.37938019771215	44.38653927728189
24	0.115	-224.4194791754679	554.2222620330696	354.3239902029857	-389.9242706604243	439.98184340503406	29.311033203387712	-357.52265929534167	169.4208529117808	45.006893372289184
25	0.12	-224.18196558404756	554.183528229656	354.67402584169014	-390.32485419757325	439.8969408184191	30.10533482480768	-357.2063413392376	169.45957360482623	45.647242634634196
26	0.125	-223.94211222736502	554.1461558055435	355.02301586419634	-390.7283145453491	439.80373222406615	30.908252315986996	-356.87533861092425	169.49516029571632	46.307405965185495
27	0.13	-223.70003592354797	554.1101408724793	355.3707086919199	-391.1340824651228	439.70180616010714	31.719292779494197	-356.5292634053257	169.5272226001118	46.9871621770606
28	0.135	-223.4558551161514	554.0754724745059	355.7168586121377	-391.54156886616573	439.59074944507165	32.53794877670193	-356.1677281016388	169.55536272497898	47.68624986506791
